PathFileType	4	(X/Y/Z)	Patient4_TMGait_0pt2_01_left_12.trc.trc
DataRate	CameraRate	NumFrames	NumMarkers	Units	OrigDataRate	OrigDataStartFrame	OrigNumFrames
39.660056657224	39.660056657224	5	33	mm	39.660056657224	18	       141
Frame#	Time	Sacral			L.Shoulder			Chest			R.Shoulder			Neck			R.ASIS			L.ASIS			R.Thigh.Superior			R.Thigh.Lateral			R.Thigh.Inferior			R.Patella			L.Thigh.Superior			L.Thigh.Lateral			L.Thigh.Inferior			L.Patella			L.Shank.Superior			L.Shank.Lateral			L.Shank.Inferior			R.Shank.Superior			R.Shank.Lateral			R.Shank.Inferior			R.Heel			R.Midfoot.Superior			R.Midfoot.Lateral			R.Toe			L.Heel			L.Midfoot.Lateral			L.Midfoot.Superior			L.Toe			L.Elbow			L.Wrist			R.Elbow			R.Wrist			
		X1	Y1	Z1	X2	Y2	Z2	X3	Y3	Z3	X4	Y4	Z4	X5	Y5	Z5	X6	Y6	Z6	X7	Y7	Z7	X8	Y8	Z8	X9	Y9	Z9	X10	Y10	Z10	X11	Y11	Z11	X12	Y12	Z12	X13	Y13	Z13	X14	Y14	Z14	X15	Y15	Z15	X16	Y16	Z16	X17	Y17	Z17	X18	Y18	Z18	X19	Y19	Z19	X20	Y20	Z20	X21	Y21	Z21	X22	Y22	Z22	X23	Y23	Z23	X24	Y24	Z24	X25	Y25	Z25	X26	Y26	Z26	X27	Y27	Z27	X28	Y28	Z28	X29	Y29	Z29	X30	Y30	Z30	X31	Y31	Z31	X32	Y32	Z32	X33	Y33	Z33	

18	27.378642857143	810.196882542906	1000.150962439158	620.873306092358	937.898260608541	1418.240327952234	389.874658890172	1077.739293329924	1358.522962781769	524.716409322789	1036.012133370421	1439.078984812012	709.405726350584	956.153131451211	1487.005458141661	542.565402017045	1058.332917950550	932.239796401423	684.102506610262	987.109568412539	961.026047640667	419.450650742159	1081.001986743886	725.905948242218	628.721321137028	1008.377412450538	611.649183155751	692.951565993577	1061.706101841551	565.352674462643	593.176689012493	1057.547615725500	471.049692348225	593.174889247703	1078.109766374958	778.376295323751	441.686294713474	1024.026062448241	650.931222323069	365.691592077802	1126.805056588052	591.477242446926	424.402512635383	1151.307429234611	521.064469459484	417.136636567885	1125.268542784850	446.688579179322	401.254278757945	1041.846243239108	331.677804012884	338.165171206116	1112.404368370455	215.914454658853	386.229041485844	1010.456290302217	386.085138598726	602.934533660855	932.385964704902	292.601888825628	672.633034735997	941.715853463768	197.560093240499	600.514022252470	776.712178323731	47.118419696021	586.074864827201	953.015146892101	96.755062422243	604.305821718826	866.749240525428	38.699114264112	651.553540230509	1072.934761143081	40.542917077132	622.078704747642	1001.611146141439	44.650418142893	408.147687564733	1079.441648575257	46.904785626367	331.040089800609	1158.446486452439	116.006097121166	358.939405761016	1290.782798419002	74.085865106054	334.447852056443	823.348429141507	1079.025024557448	309.842307901555	859.887295382775	820.423294719347	313.357011597466	1223.619340643984	1157.668386818508	808.804983557658	1410.703420966756	1283.043879105240	702.966049899409	
19	27.403857142857	809.261554417345	1002.054576705488	620.031579622402	935.326428966596	1419.460897867402	387.785083053420	1076.905237031351	1359.263978000273	520.700701786454	1037.825995803232	1440.142922860883	705.733173971373	955.551337536927	1488.103425756984	540.328139431626	1057.387732056560	932.726955286207	681.128325743384	984.195940367330	962.203346310661	416.991750982552	1076.786268260696	725.680213719478	627.000052948444	1003.125062118862	612.578330479481	692.567127982884	1055.332763304433	565.128235505179	593.003059364824	1050.001974859805	471.510094192935	593.602133821288	1072.670617529353	776.682643155406	437.828181698330	1014.682927819426	649.904920549072	363.202977203209	1117.217163591340	589.209487074032	420.491520267241	1140.516530259941	520.165504377645	414.374293774513	1117.154088549685	446.181188607930	398.851994373189	1038.132492603784	327.997968168134	335.352576119447	1112.122729340557	214.699652137817	384.664885996789	1003.580550838576	386.657012523802	603.395970130860	925.957466224229	292.818910218831	673.130034674279	935.851937704478	197.840879737749	600.862200641888	771.482991507557	46.782314719543	586.259972902403	947.840691499471	96.701901462989	604.473556374762	861.568305594410	38.455312202217	651.700471366997	1067.754757129937	40.657003571675	622.070166126273	1006.385947384492	40.960701431663	406.088491497554	1084.940784479284	44.223635073893	329.887204840096	1161.911823057482	115.163755323786	358.379575236910	1295.250315991621	75.949606825210	335.913623722400	819.984093537570	1079.923725574752	310.301130885762	862.775615868063	821.854493158409	315.257903009738	1232.424610938041	1163.497696392347	799.895461657947	1409.992656327473	1297.055873747500	688.622232543303	
20	27.429071428571	808.330768530188	1003.242000552158	618.534647625226	933.202645723984	1420.002788690083	385.165140443657	1076.133708169035	1359.399229091512	516.529794471585	1039.179138786630	1440.538462863257	701.789943815697	954.975697277561	1488.588006255643	537.594579070547	1056.410384730844	932.744121998168	678.089177265355	981.767219957505	962.596386434518	414.342554315201	1073.076156104931	725.147584499326	625.140741541531	998.505382852215	613.061231280101	691.819248189762	1049.776362175397	564.603199228003	592.493693379280	1043.378833453160	471.519853879017	593.616270589615	1067.913217742148	774.494238556648	434.017441052044	1006.438974728450	648.355829551941	360.908445181848	1108.799437811201	586.568723929421	416.950308913347	1130.682197322995	518.561027445519	411.956987942893	1109.432133183110	445.051335101783	396.667842617010	1033.697755610293	324.783158544829	333.055806323202	1109.965685623818	213.487554660520	383.393341294007	997.427770496729	386.809333376755	603.488460179924	920.034920023991	292.820870003036	673.331902204486	930.237474685614	197.855615878346	601.019742155346	766.247311514314	46.376529252559	586.420703650161	942.628010427273	96.623618895897	604.585248515790	856.376460480625	38.178064223706	651.835876813434	1062.571655160075	40.781827410631	622.059663709140	1007.762309957483	38.795915201199	404.590098070500	1086.759845325257	42.453063478946	329.049779479263	1162.390661799622	114.165565215804	357.998700534294	1296.015206550660	76.345069711469	337.050029308018	817.527255524840	1080.036681512677	309.819542238156	865.567132118952	822.512673256887	316.293220267387	1239.898356724263	1168.289695926159	791.098193128722	1408.458188175646	1308.967916481478	675.165978729698	
21	27.454285714286	807.413505792260	1003.815446862672	616.398958982181	931.521356302609	1419.966543544660	382.012488552844	1075.451389858124	1359.029527274317	512.194697645281	1040.126383544638	1440.367669825345	697.593041035028	954.444135902260	1488.556204782637	534.365588274150	1055.446485978282	932.381492859301	674.944970214965	979.817939794213	962.315467312573	411.472557335786	1069.906001770039	724.366175065880	623.101364050470	994.535045718728	613.161596919826	690.673863438891	1045.050259225776	563.827892161773	591.610487653714	1037.695168904886	471.124938084073	593.188225821568	1063.892253750310	771.973256181008	430.272277980732	999.422000464891	646.414350553755	358.764217398240	1101.657239172289	583.711071158416	413.773335292479	1121.978816985454	516.427290305065	409.841488880223	1102.322614674631	443.412621670890	394.681612251592	1028.817735838662	321.923350645790	331.231450262807	1106.392483128204	212.144276421407	382.417652926574	991.999586163217	386.598778632407	603.192897217029	914.627369953571	292.668035238297	673.225966201133	924.884015673883	197.651316109808	600.985007888876	761.019476170427	45.954287046379	586.551753389592	937.394930207561	96.531937620863	604.644136131648	851.184961150657	37.900544286210	651.955098900403	1057.394184057057	40.902548814999	622.050842529834	1006.264862854612	37.691946431545	403.632233162156	1085.511746617727	41.225793428043	328.528494816507	1160.479281850494	112.855277798283	357.833294667817	1293.903271923199	75.273835999850	337.940826623013	815.866680907259	1079.526946132126	308.339315330614	867.929718775937	822.505272618107	316.371883045406	1246.086156411270	1172.069042525701	782.548240074155	1406.390797791685	1318.817124169768	662.730611395579	
22	27.479500000000	806.524890993244	1003.928992973353	613.646260326319	930.274838333263	1419.500902409351	378.342669647185	1074.888998961901	1358.299115581617	507.689752085667	1040.740363660355	1439.781547914181	693.157381251711	953.983541250371	1488.147265697599	530.657083141141	1054.533167936761	931.763020389872	671.654700052840	978.333394652186	961.533355484773	408.352790031447	1067.261736391239	723.419249752245	620.852375182059	991.168501840318	612.981595034505	689.123943330129	1041.100199568647	562.877991125793	590.348746889602	1032.891944249230	470.411230583353	592.330427384213	1060.636420520278	769.321924372100	426.613205692608	993.715446559061	644.261680250042	356.695327207868	1095.831109488834	580.821578722093	410.928358247223	1114.525900181190	513.987021490244	407.960662321440	1096.013142800151	441.430600108627	392.853552838683	1023.815094326505	319.357443501683	329.780946327415	1101.913020345618	210.630339754039	381.703444810285	987.239569023002	386.116612790519	602.522002500777	909.697256752070	292.442371957821	672.822629028526	919.784842739871	197.299371739116	600.771605154358	755.814842240471	45.579174312559	586.646611927678	932.165797635007	96.442058923493	604.656724033587	846.005892397996	37.661740576524	652.051679084563	1052.231221229391	41.002458478393	622.048259991669	1002.562355314819	37.275909627837	403.137562938351	1081.940397741699	40.282605625008	328.283429640768	1156.840980598799	111.196228337531	357.880254664480	1289.771973727471	72.921060072708	338.665623429553	814.877280274931	1078.608406171479	305.841161264495	869.613659263453	821.990190208838	315.440824949699	1251.063030334483	1174.930050393889	774.351650881627	1404.086429694570	1326.709535005783	651.395430600752	
